<?xml version="1.0" encoding="utf-8"?>
<!-- Generator: Adobe Illustrator 25.3.1, SVG Export Plug-In . SVG Version: 6.00 Build 0)  -->
<svg version="1.1" id="Layer_1" xmlns="http://www.w3.org/2000/svg" xmlns:xlink="http://www.w3.org/1999/xlink" x="0px" y="0px"
	 viewBox="0 0 1200 134.4" style="enable-background:new 0 0 1200 134.4;" xml:space="preserve">
<style type="text/css">
	.st0{stroke:#000000;stroke-width:0.5;stroke-miterlimit:10;}
	.st1{fill:none;stroke:#000000;stroke-miterlimit:10;}
	.st2{fill:#ED1C24;}
	.st3{stroke:#FFFFFF;stroke-width:3;stroke-linecap:round;stroke-linejoin:round;stroke-miterlimit:10;}
	.st4{fill:#FFFFFF;}
	.st5{fill:none;}
	.st6{fill:none;stroke:#000000;stroke-width:0.7465;stroke-miterlimit:10;}
	.st7{fill:none;stroke:#000000;stroke-width:0.6817;stroke-miterlimit:10;}
	.st8{fill:none;stroke:#000000;stroke-width:1.0294;stroke-miterlimit:10;}
	.st9{fill:none;stroke:#000000;stroke-width:5;stroke-linecap:round;stroke-miterlimit:10;}
	.st10{fill:none;stroke:#000000;stroke-linecap:square;}
	.st11{fill:none;stroke:#000000;stroke-width:4;stroke-miterlimit:10;}
	.st12{fill:#231F20;}
	.st13{fill:none;stroke:#000000;stroke-width:3;stroke-miterlimit:10;}
	.st14{fill:none;stroke:#231F20;stroke-width:2.1809;stroke-miterlimit:10;}
	.st15{fill:#149544;}
	.st16{fill:none;stroke:#000000;stroke-width:0.9154;stroke-miterlimit:10;}
	.st17{fill:none;stroke:#231F20;}
	.st18{fill:none;stroke:#000000;stroke-width:0.8906;stroke-miterlimit:10;}
	.st19{fill:none;stroke:#FFFFFF;stroke-miterlimit:10;}
	.st20{fill:none;stroke:#FFFFFF;stroke-width:1.0927;stroke-miterlimit:10;}
	.st21{stroke:#000000;stroke-width:1.25;stroke-miterlimit:10;}
	.st22{fill:none;stroke:#000000;stroke-width:1.6729;stroke-miterlimit:10;}
	.st23{stroke:#000000;stroke-width:3;stroke-miterlimit:10;}
	.st24{stroke:#231F20;stroke-miterlimit:10;}
	.st25{stroke:#000000;stroke-miterlimit:10;}
	.st26{stroke:#000000;stroke-width:4;stroke-miterlimit:10;}
	.st27{stroke:#000000;stroke-width:0.2341;stroke-miterlimit:10;}
	.st28{stroke:#000000;stroke-width:2.079;stroke-miterlimit:10;}
	.st29{stroke:#000000;stroke-width:2;stroke-miterlimit:10;}
	.st30{stroke:#FFFFFF;stroke-width:2;stroke-miterlimit:10;}
</style>
<g>
	<path d="M148.2,131h70.6v-11.9h-36.1c-11.5,0-20.8-9.3-20.8-20.8V94c0-11.5,9.3-20.8,20.8-20.8h31V61.2h-31
		c-11.5,0-20.8-9.3-20.8-20.8v-4.2c0-11.5,9.3-20.8,20.8-20.8h36.1V3.4h-70.6V131z"/>
	<path d="M327.6,63.8c0,13.2-17.2,18.4-24.5,7.3L258.7,3.4h-13.6V131h13.6V67c0-12.1,15.8-16.8,22.4-6.7l46.5,70.7c0,0,0,0,0,0h13.6
		V3.4h-13.6V63.8z"/>
	<path d="M358.2,15.3h16.7c11.5,0,20.8,9.3,20.8,20.8V131h13.6V36.2c0-11.5,9.3-20.8,20.8-20.8H447V3.4h-88.8V15.3z"/>
	<path d="M466.4,131H537v-11.9h-36.1c-11.5,0-20.8-9.3-20.8-20.8V94c0-11.5,9.3-20.8,20.8-20.8h31V61.2h-31
		c-11.5,0-20.8-9.3-20.8-20.8v-4.2c0-11.5,9.3-20.8,20.8-20.8H537V3.4h-70.6V131z"/>
	<path d="M600.9,73.1c19.2,0,34.9-15.6,34.9-34.9c0-19.2-15.7-34.9-34.9-34.9h-42.5V131H572V67.7l53.7,63.3H642l-49.2-57.8H600.9z
		 M572,36.2c0-11.5,9.3-20.8,20.8-20.8h6.1c12.4,0,22.8,9.7,23.2,22c0.4,13.2-8.2,23.9-21.2,23.9H572V36.2z"/>
	<path d="M794.3,3.4l-26,37c-8.3,11.8-25.8,11.8-34.1,0l-26-37h-15.7l41,58.5c7.1,10.1,10.9,22.1,10.9,34.4V131H758V96.3
		c0-12.3,3.8-24.4,10.9-34.4l41-58.5H794.3z"/>
	<path d="M1018.6,61.2v11.9h20.5c19.8,0.2,27,23.5,13.9,36.4c-8.7,8.6-21.3,12.9-34.4,12.9c-29.6,0-53.6-24.8-53.6-55.3
		c0-30.4,24-55.3,53.6-55.3c15.1,0,28.7,6.5,38.4,16.8l9-9c-13.3-13.5-32.3-21.2-53-19.5c-32.9,2.6-59.4,29.5-61.5,62.5
		c-2.6,39.1,28.5,71.7,67,71.7c37.1,0,67.2-30.1,67.2-67.2c0-2-0.2-3.9-0.2-6H1018.6z"/>
	<path d="M1150.7,3.4h-15L1086.4,131h14.3l13.1-34.7h58.9l13.1,34.7h14.3L1150.7,3.4z M1118.4,84.4l10.3-27.2
		c5.1-13.5,24.1-13.5,29.2,0l10.3,27.2H1118.4z"/>
	<path d="M67.2,11.9c22.6,0,41.8,14.5,49.7,34.7l12.4-5.1C119.2,17.2,95.1,0,67.2,0C30.1,0,0,30.1,0,67.2
		c0,37.1,30.1,67.2,67.2,67.2c27.9,0,52.1-17.2,62.1-41.5l-12.4-5.1c-7.8,20.2-27,34.7-49.7,34.7c-29.6,0-53.6-24.8-53.6-55.3
		C13.6,36.7,37.6,11.9,67.2,11.9z"/>
	<path d="M900.9,5.8c-27-11.1-55.9-5.7-75.6,14c-19.7,19.7-25,48.7-14,75.6c6.2,15,18.3,27.2,33.3,33.3c9.3,3.8,18.8,5.7,28.1,5.7
		c17.7,0,34.6-6.7,47.5-19.6c19.7-19.7,25-48.7,14-75.6C928,24.1,915.9,11.9,900.9,5.8z M933.8,67.2c0,33-26.6,60.2-59.5,61l52-90.1
		C931.2,47,933.8,57.1,933.8,67.2z M821.4,34.2c11.3-17.6,30.5-28.1,51.4-28.1c20.9,0,40,10.5,51.4,28.1H821.4z M835.7,45.1
		c1.8-3.1,5-4.9,8.5-4.9h57.1c3.6,0,6.7,1.8,8.5,4.9c1.8,3.1,1.8,6.8,0,9.9l-28.6,49.5c-1.8,3.1-5,4.9-8.5,4.9
		c-3.6,0-6.7-1.8-8.5-4.9l-28.6-49.5C833.9,51.9,833.9,48.2,835.7,45.1z M871.1,128.3c-32.9-0.9-59.5-28.1-59.5-61
		c0-10.2,2.6-20.2,7.4-29.1L871.1,128.3z"/>
</g>
</svg>
